<svg width="114" height="21" viewBox="0 0 114 21" fill="none" xmlns="http://www.w3.org/2000/svg">
<path d="M50.1356 2.54758C49.4035 2.14827 48.738 1.88207 48.006 1.68242C47.0742 1.41621 44.2791 0.950351 43.2808 0.8838C40.286 0.551044 32.8323 0.0851847 31.7675 0.0851847C31.4347 0.0851847 29.172 0.0186344 28.7061 0.0186344C27.1754 0.0186344 25.911 1.28311 25.911 2.81379C25.911 2.88034 25.911 3.01344 25.911 3.07999C25.911 6.341 25.911 12.7965 25.911 14.1275C25.911 14.2606 25.7113 14.2606 25.6447 14.2606C25.5782 14.2606 25.3785 14.2606 25.3785 14.1275C25.3785 12.7299 25.3785 6.14135 25.3785 3.01344C25.3785 2.94689 25.3785 2.88034 25.3785 2.81379C25.3785 1.28311 24.1141 0.0186344 22.5834 0.0186344C22.051 -0.0479168 19.7882 0.0851847 19.522 0.0851847C18.4572 0.0851847 11.0035 0.551044 8.07522 0.8838C7.07695 1.0169 4.2818 1.41621 3.35008 1.68242C2.61802 1.88207 1.95251 2.14827 1.22044 2.54758C-0.0440315 3.27964 -0.044031 4.41101 0.0225203 5.27618C0.0890715 5.94169 0.222174 6.80686 0.355276 7.33927C0.421828 7.53892 0.954238 10.0013 1.6863 11.532C2.15216 12.5968 2.88422 13.6616 3.21698 13.9944C4.01559 14.8596 5.61282 15.7247 6.47799 16.124C7.0104 16.3237 7.74246 16.6564 8.40798 16.9226C8.67418 16.9892 9.20659 17.1889 10.0052 17.5216C11.2697 17.9209 14.8634 19.1188 19.1227 19.7843C22.4503 20.2502 25.3785 20.2502 25.7778 20.2502C26.1106 20.2502 29.1054 20.2502 32.3664 19.7843C36.6257 19.1854 40.286 17.9875 41.4839 17.5216C42.2826 17.2554 42.815 17.0557 43.0812 16.9226C43.7467 16.6564 44.4787 16.3902 45.0112 16.124C45.9429 15.7247 47.4735 14.9261 48.2722 13.9944C48.6715 13.5951 49.337 12.5968 49.8028 11.532C50.4684 10.0013 51.0673 7.53892 51.1339 7.33927C51.267 6.87341 51.4001 6.00824 51.4666 5.27618C51.4001 4.41101 51.4001 3.27964 50.1356 2.54758ZM40.5522 6.54065C40.3526 7.80513 40.0198 9.0696 39.2877 10.7999C38.356 13.1292 37.3578 14.3937 36.2929 15.3254C34.1633 16.9892 30.9688 17.2554 27.3751 17.5216C26.4434 17.5882 25.6447 17.5882 25.6447 17.5882C25.6447 17.5882 24.7796 17.5882 23.9144 17.5216C20.3206 17.322 17.0596 16.9892 14.9965 15.3254C13.9317 14.3937 12.9335 13.1292 12.0017 10.7999C11.2697 9.0696 11.0035 7.80513 10.7373 6.54065C10.6042 5.60894 10.2714 4.07826 12.9335 3.87861C13.7321 3.81205 17.6586 3.4793 19.1227 3.4793C19.7217 3.4793 20.7865 3.6124 21.1193 5.07653C21.3189 5.67549 21.5186 7.27272 21.5186 7.33927C21.5851 8.07133 21.9844 11.7982 21.9844 15.4585C22.051 15.7913 22.2506 15.9244 22.5168 15.9909C23.6482 16.1906 25.7113 16.2571 25.7113 16.2571C25.7113 16.2571 27.7744 16.1906 28.9058 15.9909C29.172 15.9244 29.3716 15.8578 29.4382 15.4585C29.4382 11.7982 29.8375 8.07133 29.904 7.33927C29.904 7.27272 30.1037 5.67549 30.3033 5.07653C30.6361 3.6124 31.7009 3.4793 32.2999 3.4793C33.764 3.4793 37.6905 3.7455 38.4891 3.87861C41.0181 4.14481 40.7519 5.60894 40.5522 6.54065Z" fill="#0063AB"/>
<path fill-rule="evenodd" clip-rule="evenodd" d="M64.8434 4.81028C64.8434 4.81028 64.5772 1.61582 61.1165 1.48272H60.2514H55.5928V8.6037H60.1848H60.5176C60.7838 8.67025 64.7103 8.7368 64.8434 4.81028ZM60.1848 6.93992C59.9186 6.93992 59.7189 6.93992 59.7189 6.93992H58.1883V3.0134H59.7189C59.7189 3.0134 59.9186 3.0134 60.1848 3.0134C60.9169 3.1465 62.3144 3.54581 62.2479 4.87683C62.2479 6.47406 60.9169 6.87337 60.1848 6.93992Z" fill="#0063AB"/>
<path fill-rule="evenodd" clip-rule="evenodd" d="M108.901 0.950317H108.834C106.305 0.950317 104.175 2.481 103.843 4.47753C103.576 2.54755 101.513 0.950317 98.9844 0.950317H98.8513C96.8548 0.950317 95.191 1.88204 94.3258 3.21306L95.1244 1.48273H92.5955L90.6655 5.87511L89.401 3.01341L90.0665 1.48273H86.6724L87.4045 2.8803L85.8738 5.87511L84.1435 1.48273H74.4936V8.60371L71.166 1.48273H67.1064L63.7788 8.60371H66.4409L69.236 2.8803L71.0329 6.93993H67.5722L68.5705 8.60371H74.4936H82.1469V7.00648H77.2887V5.80856H81.6145V4.27788H77.2887V3.07996H82.3466L84.6759 8.67026H86.6724L88.3362 5.54235L90 8.67026H91.8634L93.9931 4.01168C93.9265 4.34443 93.7934 4.67719 93.7934 5.00994C93.7934 7.20613 96.0561 9.06957 98.7848 9.06957H98.8513C101.314 9.00302 103.443 7.47234 103.71 5.4758C103.976 7.47234 106.105 9.06957 108.701 9.06957H108.767C111.496 9.00302 113.692 7.20613 113.692 5.00994C113.825 2.81375 111.629 1.01687 108.901 0.950317ZM98.9844 7.60544C97.6534 7.60544 96.5886 6.47407 96.5886 5.07649C96.5886 3.67892 97.6534 2.54755 98.9844 2.54755C100.315 2.54755 101.38 3.67892 101.38 5.07649C101.38 6.47407 100.315 7.60544 98.9844 7.60544ZM108.901 7.60544C107.57 7.60544 106.438 6.47407 106.438 5.07649C106.438 3.67892 107.503 2.54755 108.834 2.54755C110.165 2.54755 111.296 3.67892 111.296 5.07649C111.363 6.47407 110.232 7.60544 108.901 7.60544Z" fill="#0063AB"/>
<path d="M81.5481 16.2571C81.5481 16.8561 81.0822 17.322 80.4832 17.322H79.2188C78.6198 17.322 78.1539 16.8561 78.1539 16.2571V11.532H75.625V15.8578C75.625 17.8544 77.2888 18.9192 79.2188 18.9192H80.4832C82.4798 18.9192 84.077 17.8544 84.077 15.8578V11.532H81.415V16.2571H81.5481Z" fill="#0063AB"/>
<path d="M102.512 11.3989H99.6499L95.923 14.793V11.3989H93.394V18.5199H95.923V14.793L99.5833 18.5199H102.378L98.7847 14.8596L102.512 11.3989Z" fill="#0063AB"/>
<path d="M110.431 13.3954V13.2623C110.431 12.9296 110.365 12.5968 110.165 12.3306C110.032 12.0644 109.766 11.7982 109.5 11.5985C109.233 11.3989 108.901 11.2658 108.568 11.1327C108.235 10.9996 107.836 10.933 107.37 10.933H106.305H105.906H104.708C104.309 10.933 103.909 10.9996 103.51 11.1327C103.177 11.2658 102.844 11.3989 102.578 11.5985C102.312 11.7982 102.112 12.0644 101.913 12.3306C101.78 12.5968 101.646 12.9296 101.646 13.2623V13.3954C101.646 13.7282 101.713 14.0609 101.913 14.3271C102.046 14.5933 102.312 14.8595 102.578 15.0592C102.844 15.2588 103.177 15.3919 103.51 15.5251C103.843 15.6582 104.242 15.6582 104.641 15.6582H105.839H106.239H106.904C107.17 15.6582 107.37 15.7247 107.57 15.8578C107.703 15.9909 107.836 16.124 107.836 16.2571V16.7895C107.836 16.9226 107.769 17.0557 107.57 17.1888C107.37 17.3219 107.17 17.3885 106.904 17.3885H106.239H105.839H105.041C104.774 17.3885 104.575 17.3219 104.442 17.1888C104.242 17.0557 104.242 16.9226 104.242 16.8561V16.2571H101.646V16.6564C101.646 16.9892 101.713 17.3219 101.913 17.5881C102.046 17.8543 102.312 18.1205 102.578 18.3202C102.844 18.5199 103.177 18.653 103.51 18.7861C103.843 18.9192 104.242 18.9857 104.708 18.9857H105.906H106.305H107.37C107.769 18.9857 108.169 18.9192 108.568 18.7861C108.901 18.653 109.233 18.5199 109.5 18.2536C109.766 18.054 109.965 17.7878 110.165 17.5216C110.298 17.2554 110.431 16.9226 110.431 16.5899V16.4568C110.431 16.124 110.365 15.8578 110.165 15.5251C110.032 15.2588 109.766 14.9926 109.5 14.793C109.233 14.5933 108.901 14.3937 108.568 14.2606C108.235 14.1275 107.836 14.0609 107.37 14.0609H106.305H105.906H105.041C104.774 14.0609 104.575 13.9944 104.442 13.8613C104.242 13.7282 104.242 13.5285 104.242 13.462V12.9961C104.242 12.9295 104.242 12.7964 104.442 12.6633C104.641 12.5302 104.841 12.4637 105.041 12.4637H105.906H106.305H106.971C107.237 12.4637 107.436 12.5302 107.57 12.6633C107.769 12.7964 107.769 12.9295 107.769 12.9961V13.3289H110.431V13.3954Z" fill="#0063AB"/>
<path d="M89.2012 17.5216C87.8701 17.5216 86.7388 16.3902 86.7388 14.9927C86.7388 13.5951 87.8701 12.4637 89.2012 12.4637C90.1329 12.4637 90.9315 12.9961 91.3973 13.7947L93.3939 12.6634C92.4622 11.5985 90.998 10.8665 89.2677 10.8665C86.4726 10.8665 84.2764 12.7299 84.2764 14.9261C84.2764 17.1889 86.5391 18.9857 89.2677 18.9857C91.0646 18.9857 92.5953 18.2537 93.4604 17.1223L91.3973 16.0575C90.9315 16.9226 90.1329 17.5216 89.2012 17.5216Z" fill="#0063AB"/>
<path d="M57.1235 12.9961H60.4511V18.5199H63.2462V12.9961H66.4407V11.3989H57.1235V12.9961Z" fill="#0063AB"/>
<path d="M75.625 13.9944C75.625 12.5968 74.294 11.3989 72.8964 11.3989H68.9033H66.4409V18.5199H68.9033V12.9296H72.0312C72.5636 12.9296 73.096 13.3954 73.096 13.9944C73.096 14.5934 72.5636 15.0592 72.0312 15.0592H70.8998H69.4357L72.2309 18.5199H75.0926L73.4953 16.5233C74.6933 16.2571 75.625 15.1923 75.625 13.9944Z" fill="#0063AB"/>
</svg>
