<svg width="98" height="39" viewBox="0 0 98 39" fill="none" xmlns="http://www.w3.org/2000/svg">
<path d="M92.5998 25.7888H88.1587V30.1635H92.5998V25.7888Z" fill="#00682F"/>
<path d="M97.7034 25.7888H93.3286V30.1635H97.7034V25.7888Z" fill="#00682F"/>
<path d="M87.4959 25.7888H83.1211V30.1635H87.4959V25.7888Z" fill="#00682F"/>
<path fill-rule="evenodd" clip-rule="evenodd" d="M51.0392 30.8265V36.1955C50.8403 37.3224 48.7192 38.9132 47.6586 38.9132H45.2061H42.7536C41.693 38.9132 39.5719 37.3887 39.373 36.1955V30.8265V30.6939H39.5719H43.8804V35.7315H45.2061H46.5318V30.6939H50.8403H50.9729V30.8265H51.0392Z" fill="#00682F"/>
<path fill-rule="evenodd" clip-rule="evenodd" d="M0 38.8469H11.0695V30.6939H6.89361L0 38.8469Z" fill="#00682F"/>
<path fill-rule="evenodd" clip-rule="evenodd" d="M26.3149 38.8468H30.756V35.1349C32.9434 35.1349 34.6005 35.4 36.1914 33.8092C36.9205 33.0801 37.1856 31.8207 37.1856 30.6275H33.2748V32.1521H30.8223V30.6275H26.3149V38.8468Z" fill="#00682F"/>
<path fill-rule="evenodd" clip-rule="evenodd" d="M32.0817 25.7888H26.3149V30.1635H30.8223V29.3681H33.2748V30.1635H37.1856C37.1856 26.783 35.1308 25.7888 32.0817 25.7888Z" fill="#00682F"/>
<path fill-rule="evenodd" clip-rule="evenodd" d="M39.4395 29.103V30.1635H43.8805V29.3018H46.5319V30.1635H50.973V29.2355C50.973 28.2413 48.5204 25.855 47.3273 25.855H42.9525C41.7594 25.7887 39.4395 28.1087 39.4395 29.103Z" fill="#00682F"/>
<path fill-rule="evenodd" clip-rule="evenodd" d="M13.2568 25.9213V29.9647V30.0973H13.3231H17.6316V29.2356H24.1938V25.7888H13.3231H13.2568V25.9213Z" fill="#00682F"/>
<path fill-rule="evenodd" clip-rule="evenodd" d="M13.2568 38.8468H17.6316C17.6316 35.9966 17.6316 33.4778 17.6316 30.6275H13.2568V38.8468Z" fill="#00682F"/>
<path fill-rule="evenodd" clip-rule="evenodd" d="M7.2251 30.0973H11.0696V25.7888L7.2251 30.0973Z" fill="#00682F"/>
<path fill-rule="evenodd" clip-rule="evenodd" d="M50.9727 38.8469H62.0422V30.6939H57.9325L50.9727 38.8469Z" fill="#00682F"/>
<path fill-rule="evenodd" clip-rule="evenodd" d="M62.0425 30.0973V25.7888L58.3306 30.0973H62.0425Z" fill="#00682F"/>
<path fill-rule="evenodd" clip-rule="evenodd" d="M62.5728 38.8469H67.8092V30.6939H63.6996L62.5728 32.0859V38.8469Z" fill="#00682F"/>
<path fill-rule="evenodd" clip-rule="evenodd" d="M67.8091 30.0973V25.7888L64.0972 30.0973H67.8091Z" fill="#00682F"/>
<path fill-rule="evenodd" clip-rule="evenodd" d="M69.7979 38.8469H80.8674V30.6939H76.7577L69.7979 38.8469Z" fill="#00682F"/>
<path fill-rule="evenodd" clip-rule="evenodd" d="M80.8673 30.0973V25.7888L77.2217 30.0973H80.8673Z" fill="#00682F"/>
<path fill-rule="evenodd" clip-rule="evenodd" d="M53.9556 5.83712C53.9556 6.69882 54.8836 7.36167 55.8778 6.69882C56.2755 6.3674 56.3418 5.77084 56.0767 5.37313C55.5464 4.31258 53.9556 4.71028 53.9556 5.83712Z" fill="#00682F"/>
<path fill-rule="evenodd" clip-rule="evenodd" d="M43.1514 7.09652C43.1514 9.01877 43.4828 10.8747 44.1456 12.6644C44.5433 13.5924 45.3388 14.9181 46.2005 15.5147C46.7307 15.9124 47.261 16.3101 47.8576 16.5752C49.2496 17.3044 50.8404 17.6358 52.4312 17.6358C52.8289 17.6358 53.8895 17.6358 54.2209 17.5695L54.1546 13.0621H51.8347C51.6358 13.0621 50.3764 15.0507 50.3764 15.1832C49.9124 15.1832 49.3158 14.8518 48.9844 14.7193C46.8633 13.6587 45.8028 11.7364 45.4713 9.41648C45.405 8.8862 45.3388 8.22336 45.405 8.09079C45.405 8.09079 46.4656 7.22908 46.5319 7.1628C49.1833 5.04169 51.3044 3.78228 54.6849 2.92058C56.806 2.39031 59.1923 2.32402 61.3134 2.72173C61.5122 2.78801 61.7111 2.8543 61.8436 3.05315L62.5065 4.04742C62.5728 4.17999 62.6391 4.24628 62.7053 4.44513C62.9042 4.77655 63.567 4.90912 63.8322 5.10798C67.2127 7.09652 70.1292 11.0073 70.8584 14.7855C70.9246 15.117 71.0572 15.7798 70.7921 15.9124C67.8093 17.3706 65.6219 20.1546 64.8927 23.4688H67.8093C67.9418 23.2037 68.3395 21.414 69.2675 20.4197C69.9967 19.6243 71.0572 19.0278 72.1178 18.63C72.9132 18.4312 73.6423 18.1661 74.504 17.9672C74.504 16.9066 74.3714 15.9787 74.1063 14.9844C73.6423 12.5981 72.5155 10.477 71.4549 8.28964C71.3886 8.15707 71.3886 8.09079 71.3223 7.95822C71.2561 7.82565 71.1898 7.82565 71.1898 7.62679C71.7201 7.29537 72.2503 7.09652 73.0457 6.96395C75.2331 6.49995 78.0834 6.56624 80.2708 7.09652C83.7839 7.95822 85.7724 9.15134 88.4238 11.8027L89.4181 12.9296C91.738 16.0449 93.13 19.6243 94.1243 23.4025H97.8362C97.1071 20.2872 95.7814 16.9066 94.3231 14.1227C93.2626 12.333 92.7986 11.8027 91.6717 10.3445C88.8215 7.03023 85.5073 5.04169 81.1988 4.04742C77.5531 3.25201 74.1726 3.38458 70.5269 4.11371C69.9967 4.24628 68.4721 4.64398 67.9418 4.17999C67.0138 3.25201 67.1464 1.72746 67.1464 0.998328C67.0801 0.932043 64.4287 0.468051 64.0973 0.401766C60.5842 -0.194796 56.6072 -0.194795 53.2266 0.865759C49.8461 2.05888 47.7913 3.25201 45.0073 5.57197C44.2782 6.10225 43.5491 6.83138 43.1514 7.09652Z" fill="#00682F"/>
<path fill-rule="evenodd" clip-rule="evenodd" d="M48.189 23.6014L46.797 20.6849L48.1227 18.9615H46.3993C46.0679 19.4918 45.7365 20.022 45.405 20.486V18.9615H43.9468V23.6014H45.405V22.1431L45.7365 21.7454L46.5319 23.6014H48.189Z" fill="#00682F"/>
<path fill-rule="evenodd" clip-rule="evenodd" d="M43.2177 22.342C43.0188 22.4745 42.7537 22.4745 42.4885 22.4745C41.9583 22.4745 41.4943 22.2094 41.4943 21.2151C41.4943 20.5523 41.7594 20.022 42.356 20.022C42.5548 20.022 42.82 20.0883 43.0851 20.2209L43.4828 19.094C43.1514 18.8952 42.6874 18.8289 42.2897 18.8289C40.8977 18.8289 39.9697 19.6906 39.9697 21.3477C39.9697 22.9385 40.8314 23.6677 42.356 23.6677C42.7537 23.6677 43.2177 23.5351 43.5491 23.4025L43.2177 22.342Z" fill="#00682F"/>
<path fill-rule="evenodd" clip-rule="evenodd" d="M37.8484 17.5033C37.8484 17.8347 37.7159 17.9673 37.3844 17.9673C37.053 17.9673 36.9205 17.8347 36.9205 17.5033H35.7273C35.661 18.4313 36.3902 18.7627 37.3182 18.7627C38.2461 18.7627 38.9753 18.4313 38.909 17.5033H37.8484Z" fill="#00682F"/>
<path fill-rule="evenodd" clip-rule="evenodd" d="M39.5059 23.6014V18.9615H38.2465L37.0534 20.7512L36.7219 21.2814V20.7512V18.9615H35.2637V23.6014H36.5231L37.7825 21.8117L38.0476 21.3477V21.8117V23.6014H39.5059Z" fill="#00682F"/>
<path fill-rule="evenodd" clip-rule="evenodd" d="M33.4739 18.9615C33.3413 19.4918 33.2088 20.0883 33.0099 20.6186L32.9436 20.8837L32.8773 20.6849C32.6785 20.2209 32.4796 19.558 32.2808 19.0278H30.6899C31.1539 20.2872 31.6842 21.4803 32.1482 22.342C32.0819 22.4083 32.0156 22.4746 31.8831 22.4746H31.2865V23.6014C31.5516 23.6677 31.8168 23.6677 32.0819 23.6677C33.0099 23.6677 33.3413 23.27 33.8053 22.2094C34.2693 21.0826 34.667 20.022 34.9322 18.9615H33.4739Z" fill="#00682F"/>
<path fill-rule="evenodd" clip-rule="evenodd" d="M29.1654 20.5523C29.1654 20.8837 29.0329 21.1489 28.7014 21.1489H28.5026V20.022H28.6351C28.7677 20.022 28.9003 20.022 28.9666 20.0883C29.0991 20.1546 29.1654 20.3535 29.1654 20.5523ZM30.69 20.486C30.69 19.6243 30.226 19.1603 29.3643 19.0278C29.1654 18.9615 28.9003 18.9615 28.7014 18.9615H26.978V23.6014H28.4363V22.2094H28.5689C29.9608 22.2094 30.69 21.6792 30.69 20.486Z" fill="#00682F"/>
<path fill-rule="evenodd" clip-rule="evenodd" d="M24.9895 22.1431C24.9895 22.4083 24.7907 22.5409 24.4592 22.5409H24.0615V21.6792H24.393C24.8569 21.6792 24.9895 21.878 24.9895 22.1431ZM26.5141 22.0769C26.5141 21.0826 25.9838 20.6849 24.5255 20.6849H24.1278V20.022H26.1164V18.9615H22.7358V23.6014H24.3267C25.4535 23.6014 26.5141 23.27 26.5141 22.0769Z" fill="#00682F"/>
<path fill-rule="evenodd" clip-rule="evenodd" d="M20.6807 21.2814C20.6807 22.0106 20.4818 22.5408 19.819 22.5408C19.1561 22.5408 18.9573 22.1431 18.9573 21.2151C18.9573 20.5523 19.0899 20.022 19.819 20.022C20.4818 20.022 20.6807 20.486 20.6807 21.2814ZM22.2052 21.2151C22.2052 19.4254 21.3435 18.8289 19.8853 18.8289C18.3607 18.8289 17.499 19.7569 17.499 21.2814C17.499 23.1374 18.3607 23.734 19.819 23.734C21.4098 23.734 22.2052 22.8723 22.2052 21.2151Z" fill="#00682F"/>
<path fill-rule="evenodd" clip-rule="evenodd" d="M15.6432 22.1431C15.6432 22.4083 15.4443 22.5409 15.1129 22.5409H14.7152V21.6792H15.0466C15.5106 21.6792 15.6432 21.878 15.6432 22.1431ZM17.1015 22.0769C17.1015 21.0826 16.5712 20.6849 15.1129 20.6849H14.7152V20.022H16.7038V18.9615H13.3232V23.6014H14.9804C16.0409 23.6014 17.1015 23.27 17.1015 22.0769Z" fill="#00682F"/>
<path fill-rule="evenodd" clip-rule="evenodd" d="M83.1211 30.8265V37.7201V38.8469V38.9132H93.3289H97.6374H97.7037V30.6939H93.7266H93.3289V34.8698H92.6661V30.6939H92.5998H88.225V34.8698H87.4959V30.8265V30.6939H87.3633H83.2537H83.1211V30.8265Z" fill="#00682F"/>
</svg>
