<svg width="71" height="74" viewBox="0 0 71 74" fill="none" xmlns="http://www.w3.org/2000/svg">
<path d="M68.4575 23.3164C68.2173 23.3164 68.2173 23.1963 68.0972 22.1154C67.9771 19.4732 66.0555 14.6691 63.2931 12.0269C62.9328 11.6666 62.4524 11.6666 62.9328 12.3872C63.6535 13.4681 66.2957 17.1912 66.2957 22.1154C66.2957 31.7234 57.0479 40.4908 42.5157 43.3732C41.3147 43.6134 41.0745 43.2531 42.3956 42.8928C48.4007 41.3315 59.2097 37.6084 63.2931 28.3606C65.5751 23.0762 61.8519 22.7159 60.2906 22.5958C56.5675 22.2355 37.5916 22.5958 34.9493 22.5958C32.3071 22.5958 13.3312 22.3556 9.60807 22.7159C8.04676 22.836 4.32363 23.1963 6.60555 28.4807C10.689 37.8486 21.6182 41.4516 27.6232 43.0129C28.8242 43.3732 28.584 43.7335 27.5031 43.4933C12.9709 40.6109 3.72313 31.8435 3.72313 22.2355C3.72313 17.4314 6.36535 13.5882 7.08595 12.5073C7.56635 11.7867 7.08595 11.7867 6.72565 12.147C4.08343 14.7892 2.16182 19.5933 2.04172 22.2355C2.04172 23.3164 1.92161 23.4365 1.68141 23.4365C1.44121 23.4365 1.44121 22.836 1.44121 22.2355C1.92161 9.98519 16.5739 1.81833 27.383 0.857525C28.8242 0.737424 28.8242 1.21783 27.9835 1.33793C26.182 1.81833 13.091 4.58065 7.68645 14.0686C4.92413 18.8727 5.76484 20.6742 10.2086 21.1546C11.2895 21.2747 18.3754 21.3948 35.0695 21.3948C51.6434 21.3948 58.8494 21.1546 59.9303 21.0345C64.3741 20.5541 65.2148 18.7526 62.4524 13.9485C57.0479 4.46055 43.9569 1.69823 42.0353 1.21783C41.1946 0.977627 41.0745 0.617323 42.6358 0.737424C53.4449 1.69823 68.2173 9.86509 68.6977 22.1154C68.6977 22.7159 68.6977 23.3164 68.4575 23.3164ZM35.0695 20.3139C39.3931 20.3139 56.0871 20.5541 58.6092 18.6325C58.7293 18.5124 58.8494 18.3923 59.2097 18.6325C59.57 18.7526 60.4107 19.233 60.5308 19.4732C60.771 19.7134 60.5308 19.8335 60.4107 19.9536C58.9695 20.5541 55.1263 21.0345 35.0695 21.0345C15.1327 21.0345 11.1694 20.5541 9.72817 19.9536C9.60807 19.9536 9.36787 19.8335 9.60807 19.4732C9.72817 19.233 10.5689 18.7526 10.9292 18.6325C11.2895 18.5124 11.4096 18.5124 11.5297 18.6325C13.9317 20.6742 30.7458 20.3139 35.0695 20.3139ZM41.9152 0.0168207C37.9519 -0.223381 37.7117 2.17863 39.9936 2.77914C40.7142 3.01934 52.4841 6.38216 56.2072 12.7475C58.9695 17.5515 55.6067 18.7526 53.2047 18.9928C51.0429 19.233 40.5941 19.5933 34.9493 19.5933C29.3046 19.5933 18.8558 19.3531 16.694 18.9928C14.292 18.7526 10.9292 17.5515 13.6915 12.7475C17.4146 6.38216 29.1845 3.01934 29.9051 2.77914C32.187 2.17863 31.9468 -0.223381 27.9835 0.0168207C12.6106 1.09773 0 12.0269 0 22.5958C0 33.1647 12.6106 44.0938 28.2237 45.1747C32.187 45.4149 32.4272 43.0129 30.1453 42.4124C29.4247 42.1722 17.6548 38.8094 13.9317 32.444C11.1694 27.64 14.5322 26.439 16.9342 26.1988C19.096 25.9586 29.5448 25.5983 35.1896 25.5983C40.8343 25.5983 51.2831 25.8385 53.4449 26.1988C55.8469 26.439 59.2097 27.64 56.4474 32.444C52.7243 38.8094 40.9544 42.1722 40.2338 42.4124C37.7117 43.0129 37.9519 45.4149 41.9152 45.0546C57.4082 43.9737 70.1389 33.1647 70.1389 22.4757C70.1389 12.0269 57.4082 1.09773 41.9152 0.0168207Z" fill="#D91F1C"/>
<path d="M54.2856 60.0672C54.2856 60.1873 54.2856 60.3074 54.4057 60.4275C54.5258 60.5476 54.6459 60.6677 54.766 60.7878C54.8861 60.9079 55.0062 60.9079 55.2464 60.9079C56.9278 61.028 58.7293 61.028 60.4107 60.9079C60.5308 60.9079 60.771 60.7878 60.8911 60.7878C61.0112 60.6677 61.1313 60.5476 61.2514 60.4275C61.3715 60.3074 61.3715 60.1873 61.3715 60.0672C61.3715 59.5868 61.4916 59.2265 61.3715 58.7461C61.3715 58.2657 61.3715 57.9054 61.2514 57.425C61.2514 57.3049 61.2514 57.1848 61.1313 57.0647C61.1313 56.9446 61.0112 56.8245 60.8911 56.8245C60.771 56.8245 60.771 56.7044 60.6509 56.7044C60.5308 56.5843 60.2906 56.5843 60.0504 56.5843C58.4891 56.4642 56.8077 56.4642 55.2464 56.5843C55.0062 56.5843 54.8861 56.7044 54.6459 56.7044C54.5258 56.7044 54.5258 56.8245 54.4057 56.8245C54.2856 56.9446 54.2856 56.9446 54.1655 57.0647C54.0454 57.1848 54.0454 57.3049 54.0454 57.425C54.0454 57.9054 53.9253 58.2657 53.9253 58.7461C54.1655 59.2265 54.1655 59.7069 54.2856 60.0672ZM62.2122 54.3024C62.8127 54.4225 63.2931 54.5426 63.8936 54.6627C64.1338 54.7828 64.3741 54.9029 64.4942 55.023C64.7344 55.2632 64.9746 55.5034 65.0947 55.7436C65.3349 56.1039 65.455 56.4642 65.455 56.8245C65.5751 57.5451 65.5751 58.1456 65.5751 58.8662C65.5751 59.7069 65.5751 60.5476 65.3349 61.3883C65.3349 61.7486 65.0947 61.9888 64.9746 62.3491C64.8545 62.5893 64.6143 62.7094 64.4942 62.9496C64.3741 63.0697 64.1338 63.1898 64.0137 63.3099C63.5333 63.5501 63.0529 63.6702 62.5725 63.6702C61.0112 63.7903 59.4499 63.9104 57.8886 63.9104C56.3273 63.9104 54.766 63.7903 53.2047 63.6702C52.7243 63.6702 52.2439 63.5501 51.7635 63.3099C51.5233 63.1898 51.4032 63.0697 51.2831 62.9496C51.0429 62.8295 50.9228 62.5893 50.8027 62.3491C50.5625 62.1089 50.4424 61.7486 50.4424 61.3883C50.3223 60.5476 50.2021 59.827 50.2021 58.9863C50.2021 58.2657 50.3223 57.5451 50.3223 56.9446C50.4424 56.5843 50.5625 56.224 50.6826 55.8637C50.8027 55.6235 51.0429 55.3833 51.2831 55.1431C51.8836 54.6627 52.7243 54.4225 53.565 54.3024C55.0062 54.1823 56.4474 54.0622 57.8886 54.0622C59.2097 54.0622 60.6509 54.1823 62.2122 54.3024Z" fill="#12100B"/>
<path d="M37.3512 59.3466C38.5522 60.0672 39.7533 60.7879 40.9543 61.5085C41.3146 61.7487 41.5548 61.9889 41.795 62.3492C41.9151 62.4693 41.9151 62.5894 42.0352 62.7095C42.0352 62.8296 42.1553 62.9497 42.1553 63.0698C42.1553 63.1899 42.2754 63.1899 42.2754 63.31H42.3955C43.5965 63.31 44.9176 63.31 46.1186 63.31C46.2387 63.31 46.2387 63.31 46.3588 63.1899C46.3588 63.0698 46.4789 63.0698 46.4789 62.9497C46.4789 60.3074 46.4789 57.6652 46.4789 55.023C46.4789 54.9029 46.4789 54.9029 46.3588 54.7828C46.3588 54.7828 46.2387 54.6627 46.1186 54.6627C44.9176 54.6627 43.7166 54.6627 42.6357 54.6627C42.5156 54.6627 42.5156 54.6627 42.3955 54.7828C42.2754 54.9029 42.2754 54.9029 42.2754 55.023C42.2754 55.6235 42.2754 56.224 42.2754 56.8245C42.2754 56.9446 42.2754 57.0647 42.1553 57.1848C42.1553 57.3049 42.1553 57.3049 42.0352 57.425L41.9151 57.5451L41.795 57.6652C41.6749 57.6652 41.5548 57.6652 41.4347 57.6652C41.3146 57.6652 41.1945 57.6652 41.0744 57.5451C40.9543 57.5451 40.8342 57.425 40.7141 57.3049C39.3929 56.4642 37.9517 55.7436 36.5105 55.1431C35.91 54.9029 35.3095 54.7828 34.5889 54.7828C33.6281 54.7828 32.6673 54.7828 31.7065 54.7828C31.5864 54.7828 31.5864 54.7828 31.4663 54.9029C31.3462 55.023 31.3462 55.023 31.3462 55.1431C31.3462 57.7853 31.3462 60.4275 31.3462 63.0698C31.3462 63.1899 31.3462 63.1899 31.4663 63.31C31.4663 63.4301 31.5864 63.4301 31.7065 63.4301C32.9075 63.4301 34.1085 63.4301 35.3095 63.4301C35.4296 63.4301 35.4296 63.4301 35.5497 63.31C35.6698 63.1899 35.6698 63.1899 35.6698 63.0698C35.6698 61.9889 35.6698 61.0281 35.7899 59.9471C35.7899 59.827 35.7899 59.5868 35.91 59.4667C35.91 59.3466 35.91 59.3466 36.0301 59.2265C36.1502 59.1064 36.1502 59.1064 36.2703 58.9863C36.3904 58.9863 36.5105 58.9863 36.6306 58.9863C36.7507 58.9863 36.8708 58.9863 36.9909 59.1064C37.111 59.1064 37.2311 59.2265 37.3512 59.3466Z" fill="#12100B"/>
<path d="M23.2998 63.31C23.1797 63.31 23.1797 63.31 23.0596 63.1899C23.0596 63.0698 22.9395 63.0698 22.9395 62.9497C22.9395 60.3074 22.9395 57.6652 22.9395 55.023C22.9395 54.9029 22.9395 54.9029 23.0596 54.7828C23.0596 54.7828 23.1797 54.6627 23.2998 54.6627C24.6209 54.6627 25.942 54.6627 27.2631 54.6627C27.3832 54.6627 27.3832 54.6627 27.5033 54.7828C27.6234 54.9029 27.6234 54.9029 27.6234 55.023C27.6234 57.6652 27.6234 60.3074 27.6234 62.9497C27.6234 63.0698 27.6234 63.0698 27.5033 63.1899C27.5033 63.31 27.3832 63.31 27.2631 63.31C25.942 63.31 24.6209 63.31 23.2998 63.31Z" fill="#12100B"/>
<path d="M4.80415 63.31C4.68405 63.31 4.68405 63.31 4.56395 63.1899C4.44385 63.0698 4.44385 63.0698 4.44385 62.9497C4.44385 60.3074 4.44385 57.6652 4.44385 55.023C4.44385 54.9029 4.44385 54.9029 4.56395 54.7828C4.68405 54.7828 4.68405 54.6627 4.80415 54.6627C6.00516 54.6627 7.20617 54.6627 8.40718 54.6627C8.52728 54.6627 8.52727 54.6627 8.64738 54.7828C8.64738 54.7828 8.76748 54.9029 8.76748 55.023C8.76748 55.5034 8.76748 56.1039 8.88758 56.5843C8.88758 56.8245 9.00768 56.9446 9.12778 57.0647C9.24788 57.1848 9.48808 57.3049 9.72828 57.3049C11.1695 57.3049 12.4906 57.3049 13.9318 57.3049C14.172 57.3049 14.2921 57.1848 14.5323 57.0647C14.6524 56.9446 14.7725 56.7044 14.7725 56.5843C14.7725 56.1039 14.8926 55.5034 14.8926 55.023C14.8926 54.9029 14.8926 54.9029 15.0127 54.7828C15.0127 54.7828 15.1328 54.6627 15.2529 54.6627C16.4539 54.6627 17.6549 54.6627 18.8559 54.6627C18.976 54.6627 18.976 54.6627 19.0961 54.7828C19.2163 54.9029 19.2163 54.9029 19.2163 55.023C19.2163 57.6652 19.2163 60.3074 19.2163 62.9497C19.2163 63.0698 19.2163 63.0698 19.0961 63.1899C18.976 63.31 18.976 63.31 18.8559 63.31C17.6549 63.31 16.4539 63.31 15.2529 63.31C15.1328 63.31 15.1328 63.31 15.0127 63.1899C15.0127 63.1899 14.8926 63.0698 14.8926 62.9497C14.8926 62.3492 14.8926 61.7487 14.7725 61.1482C14.7725 60.908 14.6524 60.7878 14.5323 60.6677C14.4122 60.5476 14.172 60.4275 13.9318 60.4275C12.4906 60.4275 11.1695 60.4275 9.72828 60.4275C9.48808 60.4275 9.36798 60.5476 9.12778 60.6677C9.00768 60.7878 8.88758 61.0281 8.88758 61.1482C8.88758 61.7487 8.76748 62.3492 8.76748 62.9497C8.76748 63.0698 8.76748 63.0698 8.64738 63.1899C8.64738 63.31 8.52728 63.31 8.40718 63.31C7.20617 63.31 6.00516 63.31 4.80415 63.31Z" fill="#12100B"/>
<path d="M6.72578 70.6361L6.12528 68.9547L5.52477 70.6361H6.72578ZM5.88507 68.3542H6.48558L7.92679 72.1974H7.32628L6.96598 70.9964H5.40467L5.04437 72.1974H4.56396L5.88507 68.3542Z" fill="#12100B"/>
<path d="M12.2505 68.3542V68.8346H10.9294V72.1974H10.3289V68.8346H9.12793V68.3542H12.2505Z" fill="#D91F1C"/>
<path d="M13.8117 71.597C13.9318 71.3568 13.9318 71.1166 13.9318 70.7563C13.9318 70.5161 13.9318 70.2759 13.8117 70.1558C13.6916 69.9156 13.4514 69.7955 13.0911 69.7955C12.8509 69.7955 12.6107 69.9156 12.4906 70.1558C12.3705 70.396 12.2504 70.6362 12.2504 70.9965C12.2504 71.2367 12.3705 71.597 12.4906 71.7171C12.6107 71.9573 12.8509 71.9573 13.0911 71.9573C13.4514 71.9573 13.6916 71.8372 13.8117 71.597ZM14.0519 69.6754C14.2921 69.9156 14.4122 70.2759 14.4122 70.7563C14.4122 71.2367 14.2921 71.597 14.0519 71.8372C13.8117 72.0774 13.4514 72.3176 13.0911 72.3176C12.7308 72.3176 12.3705 72.1975 12.1303 71.9573C11.8901 71.7171 11.77 71.3568 11.77 70.8764C11.77 70.396 11.8901 70.0357 12.1303 69.7955C12.3705 69.5553 12.7308 69.4352 13.0911 69.4352C13.4514 69.3151 13.8117 69.4352 14.0519 69.6754Z" fill="#D91F1C"/>
<path d="M16.8142 69.4351H17.2946C17.1745 69.6753 17.0544 70.0356 16.8142 70.6361C16.6941 71.1165 16.4539 71.4768 16.3338 71.8371C16.0936 72.5577 15.8534 73.0381 15.7333 73.1582C15.6132 73.2783 15.373 73.3984 15.1328 73.3984C15.0127 73.3984 15.0127 73.3984 15.0127 73.3984H14.8926V72.918C15.0127 72.918 15.0127 72.918 15.0127 72.918H15.1328C15.2529 72.918 15.2529 72.918 15.373 72.918L15.4931 72.7979C15.4931 72.7979 15.4931 72.6778 15.6132 72.5577C15.6132 72.4376 15.7333 72.3175 15.7333 72.3175L14.7725 69.4351H15.2529L15.9735 71.717L16.8142 69.4351Z" fill="#D91F1C"/>
<path d="M19.4563 71.597C19.5764 71.3568 19.5764 71.1166 19.5764 70.7563C19.5764 70.5161 19.5764 70.2759 19.4563 70.1558C19.3362 69.9156 19.096 69.7955 18.7357 69.7955C18.4955 69.7955 18.2553 69.9156 18.1352 70.1558C18.0151 70.396 17.895 70.6362 17.895 70.9965C17.895 71.2367 18.0151 71.597 18.1352 71.7171C18.2553 71.9573 18.4955 71.9573 18.7357 71.9573C19.096 71.9573 19.3362 71.8372 19.4563 71.597ZM19.6965 69.6754C19.9367 69.9156 20.0568 70.2759 20.0568 70.7563C20.0568 71.2367 19.9367 71.597 19.6965 71.8372C19.4563 72.0774 19.096 72.3176 18.7357 72.3176C18.3754 72.3176 18.0151 72.1975 17.7749 71.9573C17.5347 71.7171 17.4146 71.3568 17.4146 70.8764C17.4146 70.396 17.5347 70.0357 17.7749 69.7955C18.0151 69.5553 18.3754 69.4352 18.7357 69.4352C19.2161 69.3151 19.4563 69.4352 19.6965 69.6754Z" fill="#D91F1C"/>
<path d="M20.7773 68.5944H21.2577V69.4351H21.7381V69.7954H21.2577V71.5969C21.2577 71.717 21.2577 71.717 21.3778 71.8371C21.3778 71.8371 21.4979 71.8371 21.618 71.8371C21.618 71.8371 21.618 71.8371 21.7381 71.8371C21.7381 71.8371 21.7381 71.8371 21.8582 71.8371V72.1974H21.7381C21.7381 72.1974 21.618 72.1974 21.4979 72.1974C21.2577 72.1974 21.1376 72.1974 21.0175 72.0773C20.8974 71.9572 20.8974 71.8371 20.8974 71.5969V69.7954H20.5371V69.4351H20.8974V68.5944H20.7773Z" fill="#D91F1C"/>
<path d="M22.6992 71.8371C22.8193 71.9572 22.9394 71.9572 23.0595 71.9572C23.1796 71.9572 23.4198 71.9572 23.5399 71.8371C23.7801 71.717 23.9002 71.4768 23.9002 71.2366V70.8763C23.9002 70.8763 23.7801 70.9964 23.66 70.9964C23.5399 70.9964 23.5399 70.9964 23.4198 70.9964H23.1796C23.0595 70.9964 22.9394 70.9964 22.8193 71.1165C22.6992 71.2366 22.5791 71.3567 22.5791 71.4768C22.459 71.5969 22.579 71.717 22.6992 71.8371ZM23.66 70.516C23.7801 70.516 23.9002 70.516 23.9002 70.3959C23.9002 70.3959 23.9002 70.2758 23.9002 70.1557C23.9002 70.0356 23.9002 69.9155 23.7801 69.7954C23.66 69.6753 23.5399 69.6753 23.2997 69.6753C23.0595 69.6753 22.9394 69.7954 22.8193 69.9155C22.8193 70.0356 22.6992 70.1557 22.6992 70.2758H22.2188C22.2188 69.9155 22.3388 69.6753 22.5791 69.5552C22.8193 69.4351 23.0595 69.315 23.2997 69.315C23.66 69.315 23.9002 69.4351 24.1404 69.5552C24.3806 69.6753 24.5007 69.9155 24.5007 70.1557V71.717V71.8371H24.6208C24.6208 71.8371 24.6208 71.8371 24.7409 71.8371C24.7409 71.8371 24.7409 71.8371 24.861 71.8371V72.1975C24.7409 72.1975 24.7409 72.1975 24.7409 72.1975H24.6208C24.5007 72.1975 24.3806 72.1974 24.2605 72.0773C24.2605 71.9572 24.1404 71.9572 24.1404 71.8371C24.0203 71.9572 23.9002 72.0774 23.7801 72.1975C23.5399 72.3176 23.4198 72.3176 23.1796 72.3176C22.9394 72.3176 22.6992 72.1974 22.5791 72.0773C22.459 71.9572 22.3388 71.717 22.3388 71.4768C22.3388 71.2366 22.459 70.9964 22.5791 70.8763C22.6992 70.7562 22.9394 70.6361 23.1796 70.6361L23.66 70.516Z" fill="#D91F1C"/>
<path d="M29.3048 68.4743C29.6651 68.7145 29.9053 69.0748 30.0254 69.5552H29.545C29.4249 69.315 29.3048 69.0748 29.1847 68.9547C28.9445 68.8346 28.7043 68.7145 28.4641 68.7145C28.1038 68.7145 27.8636 68.8346 27.6234 69.0748C27.3832 69.315 27.2631 69.7954 27.2631 70.2758C27.2631 70.7562 27.3832 71.1165 27.5033 71.3567C27.7435 71.5969 27.9837 71.8371 28.4641 71.8371C28.8244 71.8371 29.0646 71.717 29.3048 71.4768C29.545 71.2366 29.6651 70.9964 29.6651 70.516H28.4641V70.0356H30.1455V72.0773H29.7852L29.545 71.717C29.4249 71.9572 29.1847 72.0773 29.0646 72.0773C28.8244 72.1974 28.5842 72.3175 28.2239 72.3175C27.7435 72.3175 27.3832 72.1974 27.0229 71.8371C26.6626 71.4768 26.5425 70.9964 26.5425 70.2758C26.5425 69.6753 26.6626 69.0748 27.0229 68.7145C27.3832 68.3542 27.7435 68.114 28.344 68.114C28.7043 68.2341 28.9445 68.3542 29.3048 68.4743Z" fill="#12100B"/>
<path d="M30.7461 69.4351H31.2265V69.9155C31.2265 69.7954 31.3466 69.6753 31.4667 69.5552C31.5868 69.4351 31.827 69.315 31.9471 69.315C31.9471 69.315 31.9471 69.315 32.0672 69.315V69.7954C32.0672 69.7954 32.0672 69.7954 31.9471 69.7954C31.9471 69.7954 31.9471 69.7954 31.827 69.7954C31.5868 69.7954 31.4667 69.9155 31.2265 70.0356C31.1064 70.1557 30.9863 70.3959 30.9863 70.516V72.0773H30.7461V69.4351Z" fill="#12100B"/>
<path d="M34.3488 71.597C34.4689 71.3568 34.4689 71.1166 34.4689 70.7563C34.4689 70.5161 34.4689 70.2759 34.3488 70.1558C34.2287 69.9156 33.9885 69.7955 33.6282 69.7955C33.388 69.7955 33.1478 69.9156 33.0277 70.1558C32.9076 70.396 32.7875 70.6362 32.7875 70.9965C32.7875 71.2367 32.9076 71.597 33.0277 71.7171C33.1478 71.9573 33.388 71.9573 33.6282 71.9573C33.9885 71.9573 34.2287 71.8372 34.3488 71.597ZM34.589 69.6754C34.8292 69.9156 34.9493 70.2759 34.9493 70.7563C34.9493 71.2367 34.8292 71.597 34.589 71.8372C34.3488 72.0774 33.9885 72.3176 33.6282 72.3176C33.2679 72.3176 32.9076 72.1975 32.6674 71.9573C32.4272 71.7171 32.3071 71.3568 32.3071 70.8764C32.3071 70.396 32.4272 70.0357 32.6674 69.7955C32.9076 69.5553 33.2679 69.4352 33.6282 69.4352C34.1086 69.3151 34.3488 69.4352 34.589 69.6754Z" fill="#12100B"/>
<path d="M36.0302 69.4351V71.2366C36.0302 71.3567 36.0302 71.4768 36.1503 71.5969C36.2704 71.717 36.3905 71.8371 36.6307 71.8371C36.991 71.8371 37.1111 71.717 37.2312 71.3567C37.3513 71.2366 37.3513 70.9964 37.3513 70.7562V69.4351H37.8317V72.1974H37.3513V71.8371C37.2312 71.9572 37.2312 72.0773 37.1111 72.0773C36.991 72.1974 36.7508 72.3175 36.5106 72.3175C36.1503 72.3175 35.79 72.1974 35.6699 71.9572C35.5498 71.717 35.5498 71.5969 35.5498 71.3567V69.4351H36.0302Z" fill="#12100B"/>
<path d="M40.2337 71.5969C40.3538 71.3567 40.4739 71.1165 40.4739 70.7562C40.4739 70.516 40.4739 70.3959 40.3538 70.1557C40.2337 69.7954 39.9935 69.6753 39.6332 69.6753C39.2729 69.6753 39.0326 69.7954 38.9125 70.1557C38.7924 70.2758 38.7924 70.516 38.7924 70.8763C38.7924 71.1165 38.7924 71.2366 38.9125 71.4768C39.0326 71.717 39.2729 71.9572 39.6332 71.9572C39.9935 71.8371 40.1136 71.8371 40.2337 71.5969ZM38.5522 69.4351H39.0327V69.7954C39.1528 69.6753 39.2729 69.5552 39.393 69.5552C39.5131 69.4351 39.7533 69.4351 39.9935 69.4351C40.3538 69.4351 40.594 69.5552 40.8342 69.7954C41.0744 70.0356 41.1945 70.3959 41.1945 70.8763C41.1945 71.4768 41.0744 71.9572 40.7141 72.1974C40.4739 72.3175 40.2337 72.4376 39.9935 72.4376C39.7533 72.4376 39.6332 72.4376 39.5131 72.3175C39.393 72.3175 39.393 72.1974 39.2728 72.0773V73.5185H38.7924V69.4351H38.5522Z" fill="#12100B"/>
<path d="M45.7584 68.5944C45.9986 68.8346 46.1187 69.1949 46.2388 69.4351H45.7584C45.7584 69.1949 45.6383 68.9547 45.3981 68.8346C45.278 68.7145 45.0378 68.5944 44.6775 68.5944C44.3172 68.5944 43.9569 68.7145 43.8368 68.9547C43.5966 69.1949 43.4765 69.6753 43.4765 70.1557C43.4765 70.6361 43.5966 70.9964 43.8368 71.2366C44.077 71.4768 44.3172 71.5969 44.7976 71.5969C45.1579 71.5969 45.5182 71.4768 45.6383 71.1165C45.7584 70.9964 45.8785 70.7562 45.8785 70.516H46.3589C46.3589 70.8763 46.1187 71.2366 45.8785 71.4768C45.6383 71.8371 45.1579 71.9572 44.6775 71.9572C44.1971 71.9572 43.8368 71.8371 43.5966 71.5969C43.2363 71.2366 42.9961 70.6361 42.9961 69.9155C42.9961 69.315 43.1162 68.8346 43.4765 68.4743C43.8368 68.114 44.1971 67.8738 44.7976 67.8738C45.1579 68.2341 45.5182 68.3542 45.7584 68.5944Z" fill="#12100B"/>
<path d="M48.6408 71.597C48.7609 71.3568 48.7609 71.1166 48.7609 70.7563C48.7609 70.5161 48.7609 70.2759 48.6408 70.1558C48.5207 69.9156 48.2805 69.7955 47.9202 69.7955C47.68 69.7955 47.4398 69.9156 47.3197 70.1558C47.1996 70.396 47.0795 70.6362 47.0795 70.9965C47.0795 71.2367 47.1996 71.597 47.3197 71.7171C47.4398 71.9573 47.68 71.9573 47.9202 71.9573C48.2805 71.9573 48.5207 71.8372 48.6408 71.597ZM48.881 69.6754C49.1212 69.9156 49.2413 70.2759 49.2413 70.7563C49.2413 71.2367 49.1212 71.597 48.881 71.8372C48.6408 72.0774 48.2805 72.3176 47.9202 72.3176C47.5599 72.3176 47.1996 72.1975 46.9594 71.9573C46.7192 71.7171 46.5991 71.3568 46.5991 70.8764C46.5991 70.396 46.7192 70.0357 46.9594 69.7955C47.1996 69.5553 47.5599 69.4352 47.9202 69.4352C48.4006 69.3151 48.6408 69.4352 48.881 69.6754Z" fill="#12100B"/>
<path d="M49.8418 69.4351H50.3222V69.7954C50.4423 69.6753 50.5624 69.5552 50.6825 69.4351C50.8026 69.315 51.0428 69.315 51.1629 69.315C51.4031 69.315 51.5232 69.315 51.6433 69.4351C51.7634 69.5552 51.7634 69.5552 51.8835 69.6753C52.0036 69.5552 52.1237 69.4351 52.2438 69.315C52.3639 69.1949 52.6041 69.1949 52.7242 69.1949C53.0845 69.1949 53.3247 69.315 53.4448 69.5552C53.5649 69.6753 53.5649 69.9155 53.5649 70.1557V72.0773H53.0845V70.1557C53.0845 69.9155 53.0845 69.7954 52.9644 69.7954C52.8443 69.6753 52.7242 69.6753 52.6041 69.6753C52.3639 69.6753 52.2438 69.7954 52.1237 69.9155C52.0036 70.0356 51.8835 70.2758 51.8835 70.516V72.1975H51.4031V70.3959C51.4031 70.1557 51.4031 70.0356 51.283 70.0356C51.1629 69.9155 51.0428 69.7954 50.9227 69.7954C50.8026 69.7954 50.5624 69.9155 50.4423 70.0356C50.3222 70.1557 50.2021 70.3959 50.2021 70.7562V72.1975H49.7217V69.4351H49.8418Z" fill="#12100B"/>
<path d="M56.0872 71.5969C56.2073 71.3567 56.3274 71.1165 56.3274 70.7562C56.3274 70.516 56.3274 70.3959 56.2073 70.1557C56.0872 69.7954 55.847 69.6753 55.4867 69.6753C55.1264 69.6753 54.8862 69.7954 54.766 70.1557C54.766 70.3959 54.766 70.6361 54.766 70.8763C54.766 71.1165 54.766 71.2366 54.8861 71.4768C55.0062 71.717 55.2464 71.9572 55.6068 71.9572C55.7269 71.8371 55.847 71.8371 56.0872 71.5969ZM54.2856 69.4351H54.766V69.7954C54.8862 69.6753 55.0063 69.5552 55.1264 69.5552C55.2465 69.4351 55.4867 69.4351 55.7269 69.4351C56.0872 69.4351 56.3274 69.5552 56.5676 69.7954C56.8078 70.0356 56.9279 70.3959 56.9279 70.8763C56.9279 71.4768 56.8078 71.9572 56.4475 72.1974C56.2073 72.3175 55.9671 72.4376 55.7269 72.4376C55.4867 72.4376 55.3666 72.4376 55.2465 72.3175C55.1264 72.3175 55.1263 72.1974 55.0062 72.0773V73.5185H54.5259V69.4351H54.2856Z" fill="#12100B"/>
<path d="M57.7685 71.8371C57.8886 71.9572 58.0087 71.9572 58.1288 71.9572C58.2489 71.9572 58.4891 71.9572 58.6092 71.8371C58.8494 71.717 58.9695 71.4768 58.9695 71.2366V70.8763C58.9695 70.8763 58.8494 70.9964 58.7293 70.9964C58.6092 70.9964 58.4891 70.9964 58.4891 70.9964H58.2489C58.1288 70.9964 58.0087 70.9964 57.8886 71.1165C57.7685 71.2366 57.6484 71.3567 57.6484 71.4768C57.6484 71.5969 57.7685 71.717 57.7685 71.8371ZM58.8494 70.516C58.9695 70.516 59.0896 70.516 59.0896 70.3959C59.0896 70.3959 59.0896 70.2758 59.0896 70.1557C59.0896 70.0356 59.0896 69.9155 58.9695 69.7954C58.8494 69.6753 58.7293 69.6753 58.4891 69.6753C58.2489 69.6753 58.1288 69.7954 58.0087 69.9155C58.0087 70.0356 57.8886 70.1557 57.8886 70.2758H57.4082C57.4082 69.9155 57.5283 69.6753 57.7685 69.5552C58.0087 69.4351 58.2489 69.315 58.4891 69.315C58.8494 69.315 59.0896 69.4351 59.3298 69.5552C59.57 69.6753 59.6901 69.9155 59.6901 70.1557V71.717V71.8371H59.8102C59.8102 71.8371 59.8102 71.8371 59.9303 71.8371C59.9303 71.8371 59.9303 71.8371 60.0504 71.8371V72.1975C59.9303 72.1975 59.9303 72.1975 59.9303 72.1975H59.8102C59.6901 72.1975 59.57 72.1974 59.4499 72.0773C59.4499 71.9572 59.3298 71.9572 59.3298 71.8371C59.2097 71.9572 59.0896 72.0774 58.9695 72.1975C58.7293 72.3176 58.6092 72.3176 58.369 72.3176C58.1288 72.3176 57.8886 72.1974 57.7685 72.0773C57.6484 71.9572 57.5283 71.717 57.5283 71.4768C57.5283 71.2366 57.6484 70.9964 57.7685 70.8763C57.8886 70.7562 58.1288 70.6361 58.369 70.6361L58.8494 70.516Z" fill="#12100B"/>
<path d="M60.2905 69.4351H60.7709V69.7954C60.891 69.6753 61.0111 69.5552 61.2513 69.4351C61.3714 69.315 61.6116 69.315 61.7317 69.315C62.092 69.315 62.4523 69.4351 62.5724 69.6753C62.6925 69.7954 62.6925 70.0356 62.6925 70.2758V72.0773H62.2121V70.2758C62.2121 70.1557 62.2121 69.9155 62.092 69.9155C61.9719 69.7954 61.8518 69.6753 61.6116 69.6753C61.4915 69.6753 61.3714 69.6753 61.3714 69.6753C61.2513 69.6753 61.1312 69.7954 61.0111 69.9155C60.891 70.0356 60.891 70.1557 60.891 70.1557C60.891 70.2758 60.891 70.3959 60.891 70.6361V72.0773H60.4106V69.4351H60.2905Z" fill="#12100B"/>
<path d="M64.9748 69.4351H65.5753C65.4552 69.6753 65.3351 70.0356 65.0949 70.6361C64.9748 71.1165 64.7346 71.4768 64.6145 71.8371C64.3743 72.5577 64.1341 73.0381 64.014 73.1582C63.8939 73.2783 63.6537 73.3984 63.4135 73.3984C63.2934 73.3984 63.2934 73.3984 63.2934 73.3984H63.1733V72.918C63.2934 72.918 63.2934 72.918 63.2934 72.918H63.4135C63.5336 72.918 63.5336 72.918 63.6537 72.918L63.7738 72.7979C63.7738 72.7979 63.7738 72.6778 63.8939 72.5577C63.8939 72.4376 64.014 72.3175 64.014 72.3175L62.9331 69.4351H63.4135L64.1341 71.717L64.9748 69.4351Z" fill="#12100B"/>
</svg>
