<svg width="50" height="74" viewBox="0 0 50 74" fill="none" xmlns="http://www.w3.org/2000/svg">
<path d="M49.6715 55.3988H0V57.4815H49.6715V55.3988Z" fill="#194D94"/>
<path fill-rule="evenodd" clip-rule="evenodd" d="M36.1341 66.9576L34.9886 70.394H37.2795L36.1341 66.9576ZM14.162 66.9576L13.0165 70.394H15.3074L14.162 66.9576ZM3.74866 61.6469V65.8122L7.91399 61.6469H11.3504L7.80986 65.1874L10.3091 71.3312L13.5372 61.6469H16.1405L19.2645 71.0188V61.6469H23.7422L25.8249 68.4155L28.1158 61.6469H32.3853V71.0188L35.5093 61.6469H38.2167L41.549 71.7478L44.8813 63.7295H41.4449V61.6469H49.7755L45.7143 71.7478H49.7755V73.8304H38.425L38.0085 72.4767H34.3638L33.9473 73.8304H28.6365V67.1659L26.5538 73.8304H23.6381L21.5554 67.1659V73.8304H16.4529L16.0364 72.4767H12.3917L11.9752 73.8304H7.08093L4.79 67.999L3.74866 69.0403V73.8304H0.104004V61.6469H3.74866Z" fill="#194D94"/>
<path fill-rule="evenodd" clip-rule="evenodd" d="M18.0152 20.306C16.7656 17.3902 16.9739 13.7456 17.2863 10.6216C17.7028 10.7257 18.1193 10.7257 18.4317 11.0381C18.0152 14.058 18.0152 17.182 18.0152 20.306ZM26.45 31.9689C25.721 30.9275 24.9921 29.9903 23.7425 30.9275C23.6384 30.9275 23.5342 30.9275 23.4301 30.9275C23.326 29.8862 24.159 30.3027 24.6797 29.6779C24.3673 27.1788 21.6599 24.5754 20.202 22.701C19.7855 21.2432 19.7855 19.8894 19.6813 18.3274C21.2433 18.3274 22.3888 18.6398 23.7425 19.3688C23.8466 19.0564 23.8466 18.744 23.8466 18.3274C29.574 20.0977 28.7409 24.6796 27.4913 27.8036C26.8665 28.8449 25.8252 28.0118 25.721 29.5738C26.8665 29.5738 27.1789 30.1986 27.6996 31.1358C27.6996 31.6565 26.8665 31.8647 26.45 31.9689ZM19.4731 32.3854C19.3689 31.9689 19.2648 31.9689 19.3689 31.5523C21.1392 30.511 20.3061 29.2614 18.8483 28.4284C18.7441 28.1159 18.5359 27.8036 18.4317 27.4912C18.5359 27.2829 18.64 27.0746 18.7441 26.8664C20.9309 26.7622 22.0764 26.6581 22.7012 28.7408C22.597 29.4697 21.8681 30.1986 21.3474 30.7193C20.8268 31.9689 20.7227 32.2813 19.4731 32.3854ZM16.9739 33.9474C15.9325 33.635 14.7871 33.5309 13.7457 33.5309C11.7672 32.6978 11.0383 32.2813 10.7259 30.0945C11.1424 29.6779 11.4548 29.3655 12.0796 29.1573C13.2251 29.9903 14.2664 30.8234 15.0995 31.9689C15.9325 32.3854 16.5573 32.073 17.3904 32.6978C18.1193 32.8019 18.1193 32.8019 18.3276 32.8019C18.3276 32.9061 18.3276 33.0102 18.3276 33.1143C17.9111 33.5309 17.4945 33.7391 16.9739 33.9474ZM16.7656 42.4863C16.2449 41.445 15.7243 40.5078 15.0995 39.5706C13.954 38.4251 12.4961 38.0086 13.6416 36.5507C13.954 36.5507 14.1623 36.5507 14.4747 36.5507C16.1408 38.0086 15.7243 40.6119 17.9111 41.8615C17.9111 41.9657 17.9111 42.0698 17.9111 42.2781C17.4945 42.2781 17.1821 42.3822 16.7656 42.4863ZM32.5938 42.7987C31.5525 42.3822 31.7608 41.3409 31.7608 40.4037C31.0318 38.9458 30.5112 37.6962 28.9492 37.0714C28.4285 36.3425 27.3872 35.0929 28.1161 34.2598C29.9905 34.2598 30.407 35.7177 30.8236 37.1755C31.5525 38.8417 32.4897 40.4037 33.3228 41.8615C33.3228 42.0698 33.3228 42.3822 33.3228 42.5905C33.0104 42.6946 32.8021 42.7987 32.5938 42.7987ZM31.3442 45.8186C30.5112 45.2979 29.6781 44.7773 28.9492 44.3607C28.845 43.2153 27.5954 42.4863 26.8665 41.7574C26.45 40.9243 26.0334 39.9871 25.6169 39.1541C24.2632 37.5921 22.2846 37.8003 24.159 35.7177C24.9921 35.4053 24.9921 35.4053 25.4086 35.3011C26.0334 36.8631 26.6582 37.4879 28.1161 38.4251C29.7822 40.1954 29.3657 42.4863 31.0318 44.1525C31.0318 44.3607 31.7608 45.7145 31.3442 45.8186ZM34.26 45.8186C34.1558 45.8186 34.1558 45.9227 34.1558 45.9227C33.8434 45.9227 33.6352 45.8186 33.3228 45.8186C33.3228 45.4021 33.3228 45.4021 33.4269 45.0897C33.531 45.0897 33.7393 45.0897 33.9476 45.0897C34.0517 45.4021 34.1558 45.6103 34.26 45.8186ZM34.1558 46.0269C34.1558 45.9227 34.26 45.9227 34.26 45.9227C34.4682 46.2351 35.5096 47.9013 35.4054 48.4219C35.093 48.6302 34.8848 48.7343 34.6765 48.9426C34.1558 48.4219 34.1558 46.6517 34.1558 46.0269ZM34.3641 51.5459C34.1558 50.0881 34.1558 49.9839 33.9476 49.4633C32.8021 49.7757 31.6566 49.7756 31.2401 48.6302C30.0946 49.255 29.7822 49.3591 28.5326 49.255C28.1161 48.3178 27.6996 47.3806 27.283 46.3393C26.9706 46.131 26.6582 45.9227 26.3458 45.7145C25.3045 44.4649 25.2004 43.4235 23.6384 42.6946C22.2846 40.6119 22.1805 40.7161 19.6813 40.1954C18.9524 39.883 18.0152 39.4665 17.2863 39.4665C17.5987 39.883 17.8069 40.2995 18.1193 40.8202C18.5359 41.0285 19.0565 41.1326 19.5772 41.3409C20.7226 42.4863 20.8268 44.3607 22.0764 45.5062C22.1805 44.9855 22.0764 44.7773 21.9722 44.3607C23.9508 44.3607 24.6797 45.0897 24.888 46.9641C23.7425 49.4632 21.4516 49.255 20.202 46.8599C19.8896 46.6517 17.9111 45.7145 15.9325 44.6731C15.2036 43.6318 14.6829 42.3822 13.8499 41.445C12.8085 40.8202 11.7672 40.1954 10.9341 39.2582C10.83 38.2169 10.6217 37.3838 10.1011 36.5507C9.78867 36.2383 7.91427 34.8846 7.91427 34.3639C5.51921 33.635 6.24814 25.5126 6.45641 23.6382C7.28947 21.3473 7.28947 21.3473 7.60187 19.8894C7.81014 18.1192 7.81014 18.1192 8.01841 13.1208C8.74734 11.9753 9.68454 11.1422 8.01841 10.5174C8.53907 9.16372 9.8928 8.33065 10.4135 7.08106C10.4135 6.56039 10.3093 6.35212 10.3093 6.03972C12.4961 4.58186 14.0581 3.85293 14.8912 1.35373C15.6201 0.520667 15.6201 0.520666 16.3491 0C16.4532 0 16.4532 0 16.5573 0C16.4532 0.728932 16.4532 1.35373 16.4532 2.08266C18.64 1.66613 18.8483 1.562 19.1607 1.562C18.8483 2.08266 18.8483 2.08266 18.7441 2.60333C19.4731 2.70746 20.202 2.60333 20.9309 2.60333C22.9094 3.43639 25.721 2.70746 27.9078 3.33226C28.3244 3.74879 28.3244 4.16533 28.3244 4.68599C29.7822 4.89426 30.1988 6.24799 28.845 6.76865C28.012 6.76865 27.1789 6.76866 26.3458 7.08106C26.3458 7.18519 26.3458 7.39345 26.45 7.49759C27.1789 7.49759 27.9078 7.49759 28.5326 7.60172C28.7409 8.85132 27.5954 10.1009 26.3458 9.26785C24.4714 9.37199 24.4714 9.37198 23.4301 9.58025C23.0136 10.7257 20.8268 10.7257 19.7855 10.8298C19.4731 12.9125 19.6813 14.9952 19.7855 17.0778C21.8681 16.7654 22.8053 16.7654 24.888 17.2861C26.0334 16.5572 27.283 15.9324 28.4285 15.5158C33.1145 14.2662 38.217 15.0993 43.0071 15.0993C43.2154 15.0993 43.5278 15.0993 43.7361 15.0993C43.6319 15.62 43.2154 15.9324 43.0071 16.3489C41.8617 16.7654 40.8203 16.9737 40.7162 17.0778C40.9245 17.2861 40.9245 17.2861 41.4451 17.3902C41.0286 18.8481 37.384 18.3274 36.9674 19.577C37.2798 19.7853 37.2798 19.7853 37.8005 19.9936C34.7806 21.3473 32.2814 20.2018 29.1574 19.9936C28.845 20.0977 28.6368 20.0977 28.4285 20.2018C29.574 22.0762 29.7822 25.6168 29.8864 28.4284C29.8864 28.5325 29.8864 28.7408 29.8864 28.8449C31.136 31.1358 31.7608 33.4267 32.0732 36.0301C32.3856 37.1755 33.0104 37.9045 33.6352 38.7375C34.0517 39.883 34.0517 39.883 34.6765 42.4863C35.3013 43.4235 35.9261 44.3607 36.4468 45.2979C36.8633 46.8599 38.946 48.9426 38.8418 50.1922C38.5294 50.1922 37.4881 51.1294 37.384 51.4418C36.2385 51.5459 35.3013 51.5459 34.3641 51.5459ZM28.1161 4.68599C28.012 4.68599 27.6996 4.79013 27.5954 4.89426C26.9706 5.20666 26.2417 4.89426 26.45 4.16533C26.45 4.16533 28.1161 4.58186 28.1161 4.68599ZM19.6813 4.68599C20.3061 3.85293 21.2433 3.64466 21.5557 4.58186C21.1392 5.20666 19.9937 5.20666 19.6813 4.68599Z" fill="#194D94"/>
</svg>
