<svg width="92" height="51" viewBox="0 0 92 51" fill="none" xmlns="http://www.w3.org/2000/svg">
<path fill-rule="evenodd" clip-rule="evenodd" d="M46 51L40.2846 48.3358L39.6393 51H27.5631L23.9679 42.5317L20.3727 51H13.8277L10.1403 42.4366L6.54509 51H0L6.91383 34.8246H13.4589L17.1463 43.3881L20.7415 34.8246H27.2866L31.4349 44.7201H35.0301L46 0L56.9699 44.7201H79.2786L75.3146 42.8172L77.8036 41.0093L62.1323 40.9142L64.8056 34.7295H85.0862L87.7595 40.9142L85.2705 42.722L89.3267 44.625L92 50.8097H52.3607L51.7154 48.1455L46 51ZM46 44.1493L41.8517 42.1511L46 25.1194L50.1483 42.2463L46 44.1493Z" fill="#E6353A"/>
</svg>
