<svg width="88" height="74" viewBox="0 0 88 74" fill="none" xmlns="http://www.w3.org/2000/svg">
<path d="M59.3042 50.4086C59.9631 51.2872 60.622 52.1658 61.281 53.1542C61.0613 53.264 60.8417 53.4837 60.622 53.5935C59.8533 54.0328 59.1943 54.4721 58.4256 54.9114C57.547 55.3507 56.6684 55.79 55.7898 56.2293C54.5818 56.7784 53.3737 57.1078 52.0559 57.4373C50.6282 57.8766 49.2005 58.0962 47.6629 58.2061C46.4549 58.3159 45.2468 58.4257 44.0388 58.4257C43.0504 58.4257 42.1718 58.3159 41.1834 58.2061C39.8655 58.0962 38.5477 57.7668 37.2298 57.4373C35.0333 56.8882 32.8369 56.0096 30.8601 54.9114C28.7734 53.8131 26.9064 52.4953 25.1493 50.9578C23.9412 49.9694 22.9528 48.7613 21.9644 47.5533C20.5367 45.7961 19.3287 43.8193 18.2305 41.7326C17.3519 39.8657 16.6929 37.9987 16.2536 35.912C15.9242 34.3745 15.5947 32.837 15.5947 31.2995C15.5947 30.0914 15.4849 28.7736 15.5947 27.5655C15.8144 24.3807 16.4733 21.4154 17.5715 18.4502C18.2305 16.6931 19.109 15.0457 20.2073 13.3984C21.0858 12.0805 21.9644 10.8725 23.0627 9.77422C24.1609 8.56617 25.3689 7.46795 26.6868 6.36972C28.2243 5.16167 29.8717 4.06344 31.519 3.18486C32.9467 2.4161 34.4842 1.75716 36.1316 1.31787C37.3396 0.988403 38.5477 0.658936 39.8655 0.439291C40.6343 0.329468 41.5129 0.219646 42.2816 0.109823C43.4897 4.17304e-07 44.8076 0 46.0156 0C46.6745 0 47.4433 0.109821 48.1022 0.219644C49.2005 0.43929 50.2987 0.549112 51.3969 0.768758C52.9344 1.09823 54.472 1.64734 55.8997 2.19646C57.2175 2.74557 58.5354 3.4045 59.8533 4.28309C61.281 5.16167 62.5988 6.15007 63.8069 7.2483C64.6855 8.12688 65.5641 8.89564 66.4426 9.88405C67.5409 11.0921 68.4194 12.3001 69.298 13.618C70.2864 15.1555 71.0552 16.8029 71.824 18.56C72.5927 20.427 73.032 22.294 73.3615 24.2708C73.6909 26.4673 73.8008 28.6637 73.8008 30.8602C73.6909 32.6174 73.4713 34.3745 73.032 36.0219C72.5927 37.8889 71.9338 39.646 71.165 41.2934C70.5061 42.721 69.7373 44.0389 68.8587 45.3568C68.7489 45.4666 68.6391 45.5764 68.5293 45.7961C67.6507 45.1372 66.7721 44.4782 65.8935 43.8193C66.223 43.38 66.5525 42.8309 66.7721 42.3916C67.6507 40.9639 68.3096 39.4264 68.9686 37.779C69.5177 36.2415 69.8471 34.704 70.1766 33.1665C70.5061 31.4093 70.5061 29.5423 70.3963 27.7852C70.2864 26.7968 70.1766 25.8083 70.0668 24.8199C69.8471 23.3922 69.5177 22.0744 68.9686 20.6467C68.09 18.2306 66.8819 15.9243 65.3444 13.8377C64.9051 13.2886 64.4658 12.7394 63.9167 12.1903C63.8069 12.0805 63.6971 12.0805 63.5872 12.0805C61.1711 12.0805 58.6452 12.0805 56.2291 12.0805C55.5702 12.0805 55.0211 12.41 54.5818 12.7394C53.9228 13.2886 53.5934 13.9475 53.3737 14.6064C52.9344 15.8145 52.3853 17.1323 51.946 18.3404C51.2871 19.9877 50.738 21.5253 50.079 23.1726C49.7496 23.9414 49.4201 24.7101 49.2005 25.4789C48.9808 26.028 48.9808 26.4673 49.3103 27.0164C49.6398 27.3459 50.0791 27.4557 50.5183 27.4557C51.5067 27.4557 52.4951 27.4557 53.4836 27.4557C54.0327 27.4557 54.5818 27.4557 55.1309 27.4557C56.4488 27.4557 57.1077 28.6637 56.6684 29.8718C56.2291 30.97 55.7898 31.9584 55.4604 33.0566C54.0327 36.6808 52.605 40.1951 51.1773 43.8193C50.738 45.0273 50.1889 46.2354 49.7496 47.4434C49.3103 48.5417 48.5415 49.3104 47.3335 49.6399C47.004 49.7497 46.5647 49.7497 46.2353 49.7497C46.1254 49.7497 45.9058 49.7497 45.796 49.7497C44.9174 49.7497 44.0388 49.7497 43.0504 49.7497C40.9638 49.7497 38.8771 49.7497 36.6807 49.7497C34.3744 49.7497 31.9583 49.7497 29.652 49.7497C29.5422 49.7497 29.5422 49.7497 29.4324 49.7497C33.8253 53.0444 38.7673 54.8016 44.2584 54.9114C49.7496 55.0212 54.8014 53.4837 59.3042 50.4086ZM60.0729 8.676C60.1827 8.56617 60.1827 8.676 60.0729 8.676C60.0729 8.56617 59.9631 8.56617 59.9631 8.45635C58.4256 7.35812 56.7782 6.36972 55.0211 5.60096C53.5934 4.94202 52.0559 4.50273 50.4085 4.06344C48.871 3.73397 47.3335 3.51433 45.796 3.40451C44.0388 3.29468 42.2816 3.4045 40.5245 3.73397C38.5477 4.06344 36.5709 4.61256 34.7039 5.38131C33.4958 5.93043 32.2878 6.47954 31.0797 7.2483C29.8717 8.01706 28.7734 8.78582 27.6752 9.77422C26.6868 10.6528 25.6984 11.6412 24.8198 12.7394C22.9528 14.9359 21.635 17.352 20.5367 19.9877C19.6582 22.294 19.109 24.8199 18.8894 27.3459C18.7796 29.3227 18.7796 31.2995 19.109 33.1665C19.4385 35.4727 20.2073 37.779 21.1957 39.8657C22.2939 42.1719 23.6118 44.2586 25.2591 46.1256C25.3689 46.2354 25.4788 46.3452 25.6984 46.3452C28.0047 46.3452 30.2011 46.3452 32.5074 46.3452C33.1663 46.3452 33.8253 46.1256 34.3744 45.7961C35.0333 45.3568 35.4726 44.8077 35.8021 44.1487C36.1316 43.2702 36.461 42.2818 36.9003 41.4032C37.5593 39.646 38.2182 37.8889 38.8771 36.1317C39.3164 35.0335 39.7557 33.9352 40.195 32.837C40.3048 32.3977 40.4146 31.9584 40.195 31.5191C39.8655 31.0798 39.4262 30.8602 38.987 30.8602C37.4494 30.8602 35.9119 30.8602 34.4842 30.8602C33.6056 30.8602 32.9467 30.3111 32.8369 29.5423C32.7271 29.103 32.7271 28.6637 32.9467 28.3343C34.0449 25.4789 35.1432 22.7333 36.2414 19.8779C36.9003 18.1208 37.6691 16.3636 38.328 14.6064C38.8771 13.2886 39.3164 12.0805 39.8655 10.7626C40.3048 9.77423 40.9638 9.11529 41.9522 8.78582C42.6111 8.56617 43.27 8.56617 43.929 8.56617C48.9808 8.56617 54.0327 8.56617 59.0845 8.56617C59.5238 8.676 59.8533 8.676 60.0729 8.676Z" fill="#005595"/>
<path d="M61.8303 73.2518C60.6223 73.2518 59.5241 73.2518 58.316 73.2518C58.316 71.8241 58.2062 70.2866 58.2062 68.7491C57.3276 69.7375 56.449 70.7259 55.5704 71.7143C54.6919 70.7259 53.8133 69.8473 52.9347 68.8589C52.9347 68.8589 52.9347 68.8589 52.8249 68.8589C52.8249 70.2866 52.8249 71.7143 52.8249 73.2518C51.6168 73.2518 50.5186 73.2518 49.3105 73.2518C49.3105 70.3964 49.3105 67.6508 49.3105 64.7954H49.4204C50.4088 64.7954 51.3972 64.7954 52.3856 64.7954C52.4954 64.7954 52.6052 64.9053 52.6052 65.0151C53.5936 66.1133 54.4722 67.1017 55.4606 68.1999C55.4606 68.1999 55.4606 68.2 55.5704 68.3098C55.8999 67.8705 56.2294 67.4312 56.6687 66.9919C57.2178 66.333 57.7669 65.5642 58.316 64.9053C58.316 64.7954 58.4258 64.7954 58.5357 64.7954C59.6339 64.7954 60.6223 64.7954 61.7205 64.7954C61.7205 64.7954 61.7205 64.7954 61.8303 64.7954C61.8303 67.541 61.8303 70.3964 61.8303 73.2518Z" fill="black"/>
<path d="M87.6385 73.2518C87.0894 73.2518 86.5403 73.2518 85.9911 73.2518C85.5519 73.2518 85.1126 73.2518 84.6733 73.2518C84.5634 73.2518 84.4536 73.142 84.3438 73.142C82.9161 71.8241 81.5982 70.616 80.1705 69.2982C80.0607 69.1883 80.0607 69.1884 79.9509 69.0785C79.9509 70.5062 79.9509 71.8241 79.9509 73.2518C78.8527 73.2518 77.6446 73.2518 76.5464 73.2518C76.5464 70.3964 76.5464 67.6508 76.5464 64.7954C76.6562 64.7954 76.6562 64.7954 76.766 64.7954C77.6446 64.7954 78.4134 64.7954 79.292 64.7954C79.4018 64.7954 79.5116 64.7954 79.6214 64.9053C80.9393 66.1133 82.2572 67.3214 83.575 68.5294C83.7947 68.7491 84.0143 68.9687 84.3438 69.1884C84.3438 67.6508 84.234 66.2231 84.234 64.7954C85.442 64.7954 86.6501 64.7954 87.8581 64.7954C87.6385 67.541 87.6385 70.3964 87.6385 73.2518Z" fill="black"/>
<path d="M11.9707 64.7954C13.2885 64.7954 14.6064 64.7954 15.8145 64.7954C15.8145 65.7838 15.8145 66.8821 15.8145 67.8705C16.9127 67.8705 18.0109 67.8705 19.1091 67.8705C19.1091 66.8821 19.1091 65.7838 19.1091 64.7954C20.427 64.7954 21.7449 64.7954 23.0628 64.7954C23.0628 67.6508 23.0628 70.3964 23.0628 73.2518C21.7449 73.2518 20.427 73.2518 19.1091 73.2518C19.1091 72.2634 19.1091 71.275 19.1091 70.2866C18.0109 70.2866 16.9127 70.2866 15.8145 70.2866C15.8145 71.275 15.8145 72.2634 15.8145 73.2518C14.4966 73.2518 13.1787 73.2518 11.8608 73.2518C11.9707 70.3964 11.9707 67.541 11.9707 64.7954Z" fill="black"/>
<path d="M0 70.7259C0.219646 70.7259 0.439291 70.7259 0.549114 70.7259C1.53752 70.7259 2.63575 70.7259 3.62415 70.7259C3.73397 70.7259 3.8438 70.7259 3.8438 70.8357C4.06344 71.275 4.50273 71.3848 4.8322 71.4946C5.38131 71.6045 6.04025 71.6045 6.58937 71.4946C6.80901 71.4946 6.91883 71.3848 7.02866 71.275C7.2483 71.0553 7.2483 70.8357 7.02866 70.7259C6.80901 70.6161 6.69919 70.5062 6.47954 70.5062C5.60096 70.2866 4.72238 70.1768 3.95362 69.9571C2.96521 69.7375 2.08663 69.5178 1.20805 68.9687C-0.109822 68.0901 -0.109822 66.4428 1.20805 65.5642C1.86699 65.1249 2.63575 64.9053 3.40451 64.6856C4.8322 64.466 6.2599 64.3562 7.79742 64.6856C8.676 64.9053 9.44476 65.2347 10.1037 65.7839C10.4332 66.1133 10.7626 66.7723 10.7626 67.1017C10.6528 67.1017 10.6528 67.1017 10.543 67.1017C9.44476 67.1017 8.34653 67.1017 7.2483 67.1017C7.13848 67.1017 7.02866 67.1017 6.91883 66.9919C6.80901 66.8821 6.69919 66.6624 6.47954 66.6624C5.82061 66.333 5.16167 66.333 4.39291 66.5526C4.17326 66.5526 4.06344 66.6624 3.95362 66.8821C3.95362 67.1017 4.06344 67.3214 4.28309 67.3214C4.8322 67.541 5.49114 67.7607 6.04025 67.8705C7.02866 68.0901 8.12688 68.2 9.11529 68.6392C9.55458 68.8589 9.99387 69.0785 10.3233 69.2982C10.9823 69.8473 11.2019 70.5062 10.7626 71.3848C10.4332 72.1536 9.88405 72.5929 9.11529 72.9223C8.23671 73.2518 7.35813 73.4714 6.36972 73.4714C5.05185 73.5813 3.73397 73.4714 2.4161 73.142C1.64734 72.9223 0.878582 72.5929 0.329468 71.9339C0.219646 71.7143 0.109823 71.275 0 70.7259Z" fill="black"/>
<path d="M47.6631 66.9919C47.0041 66.9919 46.2354 66.9919 45.5764 66.9919C44.6979 66.9919 43.7094 66.9919 42.8309 66.9919C42.1719 66.9919 41.513 67.3214 41.0737 67.8705C40.4148 68.6393 40.6344 69.8473 41.513 70.5062C42.0621 70.8357 42.6112 70.9455 43.2702 70.9455C44.588 70.9455 46.0157 70.9455 47.3336 70.9455C47.4434 70.9455 47.5532 70.9455 47.7729 70.9455C47.7729 71.7143 47.7729 72.4831 47.7729 73.3616C47.4434 73.3616 47.114 73.3616 46.7845 73.3616C45.247 73.3616 43.5996 73.3616 42.0621 73.3616C40.9639 73.3616 39.9755 73.142 39.0969 72.4831C37.6692 71.4946 36.9004 70.2866 37.1201 68.5294C37.2299 67.3214 37.8888 66.4428 38.7674 65.7839C39.7558 65.0151 40.9639 64.6856 42.1719 64.6856C43.9291 64.6856 45.6863 64.6856 47.3336 64.6856C47.4434 64.6856 47.5532 64.6856 47.7729 64.6856C47.6631 65.4544 47.6631 66.2232 47.6631 66.9919Z" fill="black"/>
<path d="M36.7905 73.2518C35.6923 73.2518 34.5941 73.2518 33.4958 73.2518C33.386 73.2518 33.2762 73.142 33.2762 73.0321C33.0565 72.5929 32.8369 72.1536 32.6172 71.8241C32.6172 71.7143 32.5074 71.7143 32.3976 71.7143C31.0797 71.7143 29.652 71.7143 28.3342 71.7143C28.2243 71.7143 28.1145 71.7143 28.0047 71.9339C27.785 72.3732 27.5654 72.7027 27.2359 73.142C27.2359 73.2518 27.1261 73.2518 27.0163 73.2518C25.9181 73.2518 24.71 73.2518 23.502 73.2518C23.6118 73.0322 23.7216 72.8125 23.8314 72.7027C25.2591 70.1768 26.7966 67.541 28.2243 65.0151C28.3342 64.7954 28.444 64.7954 28.6636 64.7954C29.652 64.7954 30.6404 64.7954 31.6288 64.7954C31.8485 64.7954 31.9583 64.7954 31.9583 65.0151C33.386 67.541 34.8137 70.0669 36.2414 72.5929C36.5709 72.7027 36.6807 72.9223 36.7905 73.2518ZM30.311 67.2115C29.7619 68.2 29.2127 69.1884 28.7734 70.1768C29.8717 70.1768 30.8601 70.1768 31.8485 70.1768C31.2994 69.1884 30.7503 68.2 30.311 67.2115Z" fill="black"/>
<path d="M75.7779 73.2517C74.6796 73.2517 73.5814 73.2517 72.593 73.2517C72.4832 73.2517 72.4832 73.1419 72.3733 73.1419C72.1537 72.7026 71.9341 72.2633 71.6046 71.9338C71.6046 71.824 71.4948 71.824 71.3849 71.824C70.0671 71.824 68.7492 71.824 67.3215 71.824C67.1018 71.824 66.992 71.824 66.992 72.0437C66.7724 72.483 66.4429 72.8124 66.2233 73.2517C66.2233 73.3615 66.1134 73.3615 66.0036 73.3615C64.9054 73.3615 63.8072 73.3615 62.7089 73.3615H62.5991C62.9286 72.8124 63.1482 72.2633 63.4777 71.824C64.7956 69.6276 66.0036 67.3213 67.3215 65.1248C67.4313 65.015 67.5411 64.9052 67.651 64.9052C68.6394 64.9052 69.7376 64.9052 70.726 64.9052C70.8358 64.9052 70.9456 65.015 71.0555 65.1248C72.593 67.7606 74.1305 70.5061 75.668 73.1419C75.668 73.0321 75.668 73.1419 75.7779 73.2517ZM70.6162 70.0669C70.1769 69.0785 69.6278 68.09 69.0787 67.1016C68.5296 68.09 67.9804 69.0785 67.5411 70.0669C68.6394 70.0669 69.6278 70.0669 70.6162 70.0669Z" fill="black"/>
<path d="M62.4891 52.2756C62.1596 51.8363 61.8301 51.397 61.5007 51.0676C61.1712 50.6283 60.8417 50.189 60.5122 49.8595C60.4024 49.7497 60.4024 49.6399 60.4024 49.53C60.2926 48.4318 60.6221 47.3336 61.3908 46.455C61.9399 45.7961 62.7087 45.3568 63.5873 45.1371C64.0266 45.0273 64.5757 45.0273 65.015 45.0273C65.1248 45.0273 65.2346 45.0273 65.2346 45.1371C66.0034 45.7961 66.882 46.3452 67.6507 47.0041C67.7606 47.1139 67.7606 47.2238 67.6507 47.3336C66.7721 48.4318 65.7837 49.53 64.7953 50.5185C64.1364 51.1774 63.3676 51.7265 62.7087 52.2756C62.5989 52.1658 62.5989 52.1658 62.4891 52.2756Z" fill="#005595"/>
</svg>
