<svg width="14" height="11" viewBox="0 0 14 11" fill="none" xmlns="http://www.w3.org/2000/svg">
<path d="M12 7C13.1046 7 14 7.89543 14 9C14 10.1046 13.1046 11 12 11C10.8954 11 10 10.1046 10 9C10 7.89543 10.8954 7 12 7ZM8 8C8.55229 8 9 8.44771 9 9C9 9.55229 8.55229 10 8 10H1C0.447715 10 0 9.55229 0 9C0 8.44771 0.447715 8 1 8H8ZM2 0C3.10457 9.24228e-08 4 0.895431 4 2C4 3.10457 3.10457 4 2 4C0.895431 4 9.65645e-08 3.10457 0 2C9.24228e-08 0.895431 0.895431 9.65645e-08 2 0ZM13 1C13.5523 1 14 1.44772 14 2C14 2.55228 13.5523 3 13 3H6C5.44771 3 5 2.55228 5 2C5 1.44772 5.44772 1 6 1H13Z" fill="white"/>
</svg>
